<?xml version="1.0" standalone="no"?>
<!DOCTYPE svg PUBLIC "-//W3C//DTD SVG 20010904//EN"
 "http://www.w3.org/TR/2001/REC-SVG-20010904/DTD/svg10.dtd">
<svg version="1.0" xmlns="http://www.w3.org/2000/svg"
 width="600.000000pt" height="600.000000pt" viewBox="0 0 600.000000 600.000000"
 preserveAspectRatio="xMidYMid meet">

<g transform="translate(0.000000,600.000000) scale(0.100000,-0.100000)"
fill="#000000" stroke="none">
<path d="M2378 5413 c-60 -9 -108 -21 -108 -26 0 -5 10 -7 23 -4 67 17 115 18
209 4 56 -9 123 -19 148 -22 25 -3 56 -9 70 -12 42 -10 8 21 -49 46 -67 28
-165 33 -293 14z"/>
<path d="M1999 5322 c-52 -34 -126 -114 -164 -177 -31 -54 -51 -139 -41 -178
13 -53 31 -29 50 64 16 76 27 103 68 164 46 70 73 99 128 137 42 29 7 20 -41
-10z"/>
<path d="M2234 5292 c-113 -27 -173 -46 -205 -66 -114 -73 -177 -221 -135
-319 18 -44 51 -71 119 -102 66 -29 87 -62 87 -138 l0 -43 -174 -32 c-131 -24
-200 -43 -282 -76 -342 -138 -671 -421 -715 -615 -8 -37 5 -132 22 -167 21
-41 86 -55 159 -34 19 5 138 23 265 40 126 16 356 52 510 80 331 59 520 87
630 95 l80 5 -65 -15 c-36 -8 -200 -38 -365 -65 -250 -42 -750 -131 -805 -144
-8 -2 37 -4 100 -5 116 -1 354 23 595 59 72 11 213 31 315 45 372 51 358 48
610 126 36 11 139 33 230 48 184 33 412 79 419 86 2 3 -4 5 -14 5 -45 0 2 12
96 25 170 24 242 43 269 70 14 14 37 37 53 52 17 17 27 37 27 55 0 40 -34 103
-71 130 -17 13 -40 40 -50 60 -47 91 -166 168 -325 208 -77 20 -315 39 -504
41 -47 0 -137 1 -200 1 -70 1 -130 -3 -153 -11 -33 -11 -41 -10 -69 6 -25 14
-35 30 -45 68 -19 74 -6 101 75 155 83 56 94 76 90 162 -3 57 -8 72 -34 105
-67 82 -168 129 -300 137 -67 5 -103 0 -240 -32z m201 -53 c10 -14 1 -21 -19
-13 -9 3 -13 10 -10 15 7 12 21 11 29 -2z m75 -44 c37 -8 49 -25 18 -25 -31 1
-72 36 -61 52 6 10 8 9 11 -4 2 -9 16 -20 32 -23z m-120 -85 c50 -26 61 -60
34 -109 -29 -53 -40 -49 -53 21 -7 35 -17 73 -22 86 -11 27 -8 27 41 2z m-307
-5 c28 -11 42 -12 67 -3 26 9 39 8 66 -6 45 -21 51 -39 25 -72 -12 -15 -21
-40 -21 -55 l0 -29 -76 0 -75 0 1 53 c2 73 2 77 -14 77 -9 0 -23 -27 -37 -75
-12 -41 -26 -75 -31 -75 -15 0 -29 51 -22 86 6 35 57 114 73 114 5 0 24 -7 44
-15z m323 -276 c8 -14 -14 -29 -43 -29 -27 0 -31 26 -5 33 30 8 41 7 48 -4z
m-110 -94 c18 -77 17 -107 -3 -103 -13 2 -20 17 -24 54 -4 28 -11 60 -17 71
-13 23 -6 35 17 31 10 -2 20 -23 27 -53z m132 27 c7 -5 15 -32 19 -60 6 -51 5
-52 -21 -52 -24 0 -26 3 -26 45 0 33 -4 45 -15 45 -8 0 -15 4 -15 9 0 8 13 14
40 20 3 0 11 -3 18 -7z m-119 -199 c-22 -28 -32 -33 -71 -33 -50 0 -164 -25
-229 -50 -75 -28 -83 -25 -24 10 27 16 72 32 100 35 96 12 209 35 219 45 16
16 19 11 5 -7z m-490 -88 c-3 -2 -55 -22 -117 -44 -61 -22 -120 -45 -131 -51
-12 -6 -21 -8 -21 -6 0 10 84 49 165 77 75 26 114 35 104 24z m571 -15 c0 -5
-6 -10 -14 -10 -8 0 -23 -3 -33 -6 -10 -3 -7 2 7 10 30 18 40 20 40 6z m680
-10 c-20 -13 -50 -13 -50 0 0 6 15 10 33 10 24 0 28 -3 17 -10z m-160 -19 c0
-9 -187 -37 -195 -29 -8 7 115 36 158 37 20 1 37 -3 37 -8z m-1083 -34 c-89
-59 -250 -174 -318 -226 -90 -70 -248 -166 -257 -156 -7 7 153 166 213 211 64
49 125 82 252 134 122 51 141 57 110 37z m553 -31 c-81 -33 -250 -75 -250 -62
0 4 67 25 215 70 76 22 97 18 35 -8z m1158 4 c23 -6 40 -15 38 -19 -3 -5 -33
-11 -66 -15 -34 -4 -68 -10 -76 -13 -8 -3 -14 -1 -14 5 0 5 9 12 21 15 11 3
23 15 26 26 3 11 10 18 16 16 7 -2 31 -9 55 -15z m150 -82 c-3 -21 -11 -24
-103 -35 -55 -6 -158 -18 -229 -27 -71 -10 -130 -15 -132 -13 -3 2 425 92 459
96 5 1 7 -9 5 -21z m246 6 c18 -18 18 -17 10 -38 -4 -10 -18 -16 -40 -16 -29
0 -34 3 -34 25 0 13 8 29 18 34 23 14 28 14 46 -5z m-139 -4 c3 -5 -3 -10 -14
-10 -12 0 -21 5 -21 10 0 6 6 10 14 10 8 0 18 -4 21 -10z m-2031 -32 c-19 -34
-51 -59 -87 -69 -21 -6 -41 -8 -43 -6 -4 3 123 85 134 87 2 0 0 -6 -4 -12z
m-531 -133 c-115 -116 -158 -151 -134 -107 29 53 218 232 246 232 6 0 -44 -56
-112 -125z m2456 70 c-7 -7 -266 -46 -689 -105 -389 -54 -554 -78 -582 -86
-13 -4 -18 0 -18 15 0 12 5 21 12 21 31 0 380 45 638 82 157 22 341 48 410 58
121 17 238 25 229 15z m-416 -192 c-7 -2 -19 -2 -25 0 -7 3 -2 5 12 5 14 0 19
-2 13 -5z m-55 -10 c-10 -2 -26 -2 -35 0 -10 3 -2 5 17 5 19 0 27 -2 18 -5z
m-75 -10 c-7 -2 -21 -2 -30 0 -10 3 -4 5 12 5 17 0 24 -2 18 -5z m-1048 -24
c-16 -4 -71 -13 -123 -19 -51 -6 -112 -14 -135 -20 -23 -5 -152 -27 -287 -50
-135 -22 -276 -47 -315 -54 -126 -25 -145 -27 -145 -17 0 5 24 12 53 16 51 7
289 52 622 119 122 25 197 34 265 34 70 0 87 -2 65 -9z m-575 -14 c0 -5 -59
-21 -115 -31 -63 -11 -35 5 36 21 76 16 79 16 79 10z m1113 -22 c-7 -2 -19 -2
-25 0 -7 3 -2 5 12 5 14 0 19 -2 13 -5z m-1428 -32 c21 -9 24 -8 -75 -27 -43
-8 -37 11 8 23 47 13 43 13 67 4z"/>
<path d="M2835 4939 c-22 -23 -64 -57 -92 -76 -57 -36 -64 -57 -38 -103 15
-26 19 -21 16 17 -2 16 14 31 63 64 65 43 101 90 95 122 -3 15 -12 10 -44 -24z"/>
<path d="M3215 4801 c-24 -6 -14 -9 50 -14 96 -8 203 -27 345 -61 58 -14 110
-24 115 -23 13 5 -68 41 -165 74 -61 22 -97 27 -195 29 -66 2 -133 -1 -150 -5z"/>
<path d="M2980 4790 c0 -12 64 -12 100 0 19 6 9 8 -37 9 -36 1 -63 -3 -63 -9z"/>
<path d="M1732 4639 c-113 -24 -264 -72 -312 -100 -19 -11 -28 -18 -19 -15
150 44 306 86 352 95 54 10 97 26 97 36 0 8 -18 5 -118 -16z"/>
<path d="M1304 4468 c-16 -12 -56 -45 -89 -74 -33 -28 -94 -74 -135 -101 -42
-28 -92 -69 -112 -91 -47 -51 -93 -121 -85 -128 3 -3 34 19 69 48 34 30 106
88 158 129 53 42 126 113 163 157 37 45 66 82 64 82 -3 0 -17 -10 -33 -22z"/>
<path d="M3615 3788 c18 -117 41 -212 53 -216 10 -3 12 13 7 74 -14 182 -14
184 -41 184 -24 0 -25 -2 -19 -42z"/>
<path d="M3472 3802 c-17 -3 -21 -8 -17 -25 16 -74 34 -196 45 -304 0 -2 9 -3
21 -3 16 0 20 6 19 28 -3 46 -1 48 20 15 21 -35 27 -38 49 -24 11 7 8 16 -13
47 -30 44 -32 65 -11 124 21 58 19 70 -9 70 -20 0 -25 -6 -31 -40 -11 -65 -22
-55 -29 27 -3 43 -9 80 -14 83 -4 3 -17 4 -30 2z"/>
<path d="M3335 3696 c-13 -20 -16 -42 -13 -98 5 -87 23 -129 62 -143 25 -8 31
-6 53 20 24 27 25 34 20 109 -6 93 -27 129 -75 134 -24 2 -34 -3 -47 -22z m69
-68 c12 -59 7 -118 -9 -118 -8 0 -15 1 -15 3 0 2 -5 29 -11 60 -5 32 -7 66 -4
77 9 27 32 14 39 -22z"/>
<path d="M2837 3704 c-3 -4 -3 -19 0 -35 4 -21 1 -30 -11 -35 -22 -8 -20 -41
3 -47 15 -3 20 -21 30 -98 7 -51 14 -95 16 -97 9 -10 46 11 41 23 -3 8 -8 52
-12 99 -6 76 -5 86 10 86 23 0 20 37 -4 43 -15 4 -20 14 -20 36 0 26 -4 31
-23 31 -13 0 -26 -3 -30 -6z"/>
<path d="M3174 3679 c-35 -38 -15 -203 29 -234 30 -21 44 -19 72 10 20 19 25
34 25 77 0 63 -16 126 -38 151 -21 23 -65 22 -88 -4z m66 -65 c13 -33 13 -121
1 -129 -16 -9 -31 29 -38 95 -5 52 -4 60 11 60 9 0 21 -12 26 -26z"/>
<path d="M3046 3658 c-30 -42 -14 -189 24 -223 10 -9 30 -17 46 -18 23 -2 30
3 32 21 3 17 -2 22 -17 22 -28 0 -51 48 -51 109 0 46 2 51 26 57 18 5 24 12
22 28 -5 32 -61 35 -82 4z"/>
<path d="M2393 3654 c-3 -8 -4 -41 -1 -72 2 -31 2 -70 -1 -87 -5 -25 -10 -16
-31 60 l-25 90 -37 3 c-44 4 -43 12 -23 -123 8 -55 15 -124 15 -152 0 -54 7
-61 42 -48 13 5 13 19 2 93 -16 104 -17 119 -5 107 4 -6 19 -50 32 -98 20 -74
27 -87 43 -85 17 3 19 13 21 106 1 56 5 105 8 109 4 3 7 -4 7 -17 0 -13 5 -63
11 -112 11 -83 13 -88 33 -82 11 4 22 7 23 8 2 1 -4 40 -11 87 -8 46 -18 117
-21 157 l-7 72 -34 0 c-22 0 -37 -6 -41 -16z"/>
<path d="M2730 3643 c-25 -9 -40 -35 -40 -70 0 -25 10 -44 40 -77 22 -24 40
-48 40 -54 0 -14 -27 -23 -46 -15 -12 4 -15 0 -12 -18 2 -18 10 -25 33 -27 43
-4 67 17 68 62 1 31 -5 43 -37 73 -42 40 -47 80 -9 76 27 -3 37 22 17 42 -16
15 -28 17 -54 8z"/>
<path d="M2541 3589 c-23 -9 -24 -11 -17 -86 11 -123 43 -170 92 -138 13 9 24
11 24 5 0 -5 10 -10 21 -10 20 0 21 3 15 78 -13 153 -16 163 -40 156 -11 -4
-22 -7 -23 -8 -1 -1 3 -36 9 -78 9 -62 8 -81 -2 -93 -24 -28 -40 4 -48 97 -7
85 -7 85 -31 77z"/>
<path d="M3657 3534 c-4 -4 -7 -16 -7 -26 0 -14 6 -19 23 -16 14 2 22 10 22
23 0 20 -25 32 -38 19z"/>
<path d="M1961 3248 c-41 -20 -41 -20 -21 -38 12 -10 16 -20 10 -22 -5 -1 -14
-39 -20 -82 -5 -44 -12 -81 -14 -83 -2 -2 -26 10 -54 27 -181 111 -336 114
-416 7 -43 -58 -51 -101 -31 -174 20 -73 91 -188 151 -244 47 -44 184 -138
245 -169 24 -12 45 -24 47 -25 2 -2 -4 -29 -12 -61 -43 -169 -76 -403 -76
-549 0 -49 -7 -130 -15 -180 -25 -152 -22 -181 29 -320 32 -85 53 -108 136
-150 113 -57 220 -83 438 -105 57 -5 147 -21 200 -34 231 -59 677 -83 1072
-59 185 11 205 18 220 75 6 20 17 49 25 64 8 16 17 49 21 74 4 25 17 66 31 93
40 81 51 150 58 377 9 318 27 460 58 460 6 0 70 29 142 64 93 46 148 81 193
122 l63 57 -22 23 c-23 25 -49 32 -49 14 0 -5 -5 -10 -11 -10 -7 0 -9 10 -5
26 6 21 1 33 -20 55 -15 16 -32 29 -36 29 -5 0 -60 -43 -122 -95 -63 -52 -117
-95 -121 -95 -8 0 1 143 17 252 10 72 13 79 43 98 19 12 61 26 95 32 l61 10
-16 24 c-8 13 -15 25 -15 27 0 2 27 17 61 32 43 19 58 30 50 38 -13 13 -164
-7 -217 -29 -20 -8 -37 -14 -39 -12 -2 2 -5 37 -8 78 -4 58 -2 77 10 85 8 6
11 18 8 27 -9 22 -129 42 -395 68 -252 24 -430 45 -555 65 -151 24 -225 34
-335 45 -331 31 -586 62 -660 79 -137 31 -154 32 -199 9z m110 -94 l34 -11
-35 -10 c-45 -13 -50 -9 -49 35 0 28 2 32 8 18 4 -11 23 -25 42 -32z m749 -69
c205 -15 674 -62 695 -70 6 -2 -3 -4 -19 -4 -16 -1 -34 -7 -40 -14 -9 -12 -46
-10 -221 10 -115 13 -313 34 -440 46 -203 19 -230 24 -233 40 -3 14 1 17 20
13 13 -3 120 -12 238 -21z m-1087 -32 c21 -9 36 -17 34 -19 -4 -5 -137 36
-137 42 0 8 58 -6 103 -23z m380 -12 c11 -11 -7 -184 -22 -206 -3 -5 -21 -10
-38 -10 l-33 0 0 119 0 119 41 -6 c23 -3 46 -10 52 -16z m-517 2 c12 -4 1 -10
-36 -20 -58 -15 -76 -9 -46 13 21 15 54 18 82 7z m751 -43 c22 0 14 -6 -19
-14 -22 -5 -28 -3 -28 10 0 11 5 14 16 10 9 -3 23 -6 31 -6z m-803 -37 c-9
-35 -8 -35 -28 -27 -21 8 -21 30 2 43 27 16 33 13 26 -16z m656 17 c13 -9 13
-11 0 -19 -17 -12 -30 -5 -30 15 0 16 9 18 30 4z m-412 -32 c35 -15 78 -37 97
-50 32 -21 35 -28 35 -71 0 -44 -14 -160 -26 -215 -4 -22 -7 -21 -64 28 -98
85 -170 162 -201 215 -33 58 -36 81 -12 108 23 25 85 20 171 -15z m2130 10
c73 -11 102 -26 102 -54 0 -19 -14 -18 -31 2 -21 25 -65 44 -106 44 -21 1 -60
7 -88 16 l-50 14 50 -5 c28 -3 83 -11 123 -17z m-443 -34 c180 -18 240 -40 85
-31 -199 13 -329 30 -335 45 -4 12 3 14 42 9 27 -4 120 -14 208 -23z m-1967
-41 c6 -19 7 -33 2 -33 -15 0 -32 40 -26 57 8 19 10 17 24 -24z m2292 1 c0 -2
-18 -4 -41 -4 -22 0 -38 4 -35 8 5 8 76 4 76 -4z m206 -120 c-6 -23 -7 -24
-31 -8 l-25 16 25 24 c14 13 26 29 26 36 1 7 4 0 6 -16 3 -15 2 -39 -1 -52z
m-2376 -19 c30 -32 14 -32 -25 0 -20 17 -25 25 -14 25 8 0 26 -11 39 -25z
m1744 -41 c3 -9 6 -49 6 -90 0 -59 3 -74 15 -74 12 0 15 15 15 74 0 100 3 106
56 106 l44 0 0 -164 c0 -90 -3 -178 -6 -195 -6 -30 -9 -32 -48 -29 l-41 3 -5
79 c-3 51 -10 81 -17 84 -10 3 -13 -16 -13 -70 0 -85 -8 -98 -62 -98 l-37 0
-3 183 c-2 100 -1 188 1 195 5 19 87 16 95 -4z m269 -1 c5 -3 7 -26 5 -52 -2
-36 0 -46 12 -46 11 0 16 14 20 50 4 43 8 50 29 53 12 2 34 1 47 -2 29 -8 30
-26 13 -216 -16 -188 -4 -170 -110 -170 -122 0 -129 5 -129 84 0 74 11 88 63
79 31 -5 36 -9 39 -36 4 -44 26 -45 34 -3 10 55 1 66 -50 66 -75 0 -76 1 -76
104 0 51 3 96 7 100 7 7 80 -1 96 -11z m-533 -38 l0 -44 68 -3 67 -3 3 -47 3
-48 -43 0 c-80 0 -89 -6 -86 -59 l3 -46 63 -3 62 -3 0 -38 0 -38 -101 -8 c-60
-4 -105 -3 -111 3 -9 9 -38 360 -31 375 2 4 26 7 54 7 l49 0 0 -45z m-167 -22
c4 -32 9 -98 13 -146 6 -71 10 -90 25 -98 29 -15 26 -75 -3 -83 -40 -10 -98
-7 -103 7 -4 12 -35 329 -35 361 0 13 10 16 49 16 l48 0 6 -57z m-138 25 c12
-48 43 -353 37 -360 -4 -3 -25 -8 -47 -10 l-40 -3 -10 64 c-6 39 -16 66 -24
69 -12 4 -13 -8 -8 -66 7 -70 6 -72 -17 -78 -13 -3 -35 -4 -47 -2 -23 3 -25
11 -52 182 -18 122 -24 183 -17 190 6 6 47 15 93 22 122 17 126 17 132 -8z
m-269 -30 c11 -17 43 -228 37 -243 -2 -8 -28 -17 -56 -22 -27 -4 -52 -14 -55
-21 -3 -11 9 -12 60 -7 l65 7 7 -33 c9 -45 -3 -52 -114 -68 -71 -11 -94 -11
-99 -2 -4 7 -23 88 -42 181 -24 120 -30 173 -23 180 11 11 136 37 186 39 15 1
30 -4 34 -11z m-223 -219 c20 -100 34 -185 32 -189 -8 -13 -68 -20 -80 -10 -7
6 -19 38 -26 71 -14 64 -39 101 -39 58 0 -12 5 -49 12 -81 14 -66 9 -76 -43
-84 l-35 -6 -18 74 c-10 40 -32 122 -48 182 -16 59 -26 112 -21 117 4 4 27 11
50 15 l42 6 10 -38 c5 -22 15 -60 22 -86 11 -46 22 -58 33 -39 3 5 -2 43 -11
86 -16 75 -16 78 2 91 10 8 33 14 50 14 l31 0 37 -181z m1973 -37 c-27 -52
-126 -135 -142 -119 -2 2 30 38 72 81 42 42 78 75 81 73 2 -3 -2 -19 -11 -35z
m-956 -202 c18 -18 20 -35 22 -202 3 -250 3 -250 -18 -265 -11 -8 -47 -13 -94
-13 -82 0 -118 -15 -107 -44 5 -13 24 -16 117 -16 l110 0 0 -70 c0 -82 13 -76
-170 -85 -69 -3 -139 -8 -157 -11 -62 -11 -65 -2 -103 342 -18 171 -30 318
-27 328 10 25 45 34 169 44 196 16 235 15 258 -8z m268 -68 c3 -78 4 -83 28
-92 14 -6 61 -10 104 -10 111 0 110 0 110 -80 0 -104 6 -99 -122 -93 -88 5
-112 3 -119 -8 -5 -8 -9 -49 -9 -92 0 -74 1 -78 26 -87 14 -6 60 -10 102 -10
105 0 107 -3 96 -87 -7 -51 -13 -68 -24 -66 -8 1 -90 5 -181 8 -91 4 -172 11
-180 16 -11 7 -15 70 -17 349 l-3 341 93 -3 93 -3 3 -83z m-764 26 c11 -54 12
-89 2 -97 -16 -13 -159 -30 -170 -20 -12 11 -26 102 -17 112 7 7 102 24 153
26 21 1 29 -4 32 -21z m-266 -27 c17 -10 29 -67 83 -399 30 -184 39 -266 32
-273 -6 -6 -82 -26 -169 -44 -88 -18 -167 -36 -176 -40 -11 -4 -20 0 -26 12
-16 29 -173 653 -167 662 5 10 82 29 255 66 128 26 149 29 168 16z m309 -316
c12 -99 25 -214 28 -256 l8 -76 -78 -12 c-91 -13 -90 -14 -100 68 -3 31 -17
124 -30 206 -13 83 -25 168 -27 190 l-3 40 75 11 c41 6 82 11 90 10 12 -1 20
-39 37 -181z m909 -561 c-4 -9 -9 -15 -11 -12 -3 3 -3 13 1 22 4 9 9 15 11 12
3 -3 3 -13 -1 -22z"/>
<path d="M2690 2547 c0 -26 6 -49 14 -56 19 -16 24 0 16 52 -7 58 -30 61 -30
4z"/>
<path d="M2423 2523 c3 -10 8 -30 11 -45 10 -44 26 -33 26 17 0 39 -3 45 -21
45 -15 0 -19 -5 -16 -17z"/>
<path d="M3107 2024 c-9 -9 -8 -76 1 -129 6 -34 11 -40 32 -40 23 0 25 4 28
52 4 70 -9 117 -34 121 -11 2 -23 0 -27 -4z"/>
<path d="M2373 1913 c-6 -16 9 -105 49 -275 18 -81 22 -88 44 -88 20 0 24 5
24 30 0 50 -61 334 -73 342 -20 13 -37 9 -44 -9z"/>
<path d="M1517 3189 c-66 -7 -117 -29 -117 -49 0 -14 19 -12 75 6 63 22 282
15 320 -10 30 -19 56 -21 49 -3 -8 22 -70 47 -142 57 -75 11 -88 11 -185 -1z"/>
<path d="M1320 2915 c0 -4 9 -18 19 -31 11 -14 22 -50 26 -85 6 -48 14 -69 45
-107 73 -93 231 -222 272 -222 28 0 22 16 -19 49 -21 17 -76 61 -123 98 -88
71 -85 67 -167 237 -15 33 -34 61 -40 64 -7 2 -13 1 -13 -3z"/>
<path d="M4275 2895 c-5 -2 -31 -6 -57 -10 -62 -8 -62 -21 -1 -16 25 2 79 -2
119 -9 58 -9 81 -9 109 1 19 7 35 16 35 20 0 12 -175 24 -205 14z"/>
<path d="M4546 2841 c-3 -5 1 -14 9 -21 12 -10 15 -10 15 3 0 19 -16 31 -24
18z"/>
<path d="M4533 2741 c-3 -12 -13 -21 -23 -21 -33 0 -48 -11 -43 -30 3 -10 0
-27 -6 -37 -9 -15 -10 -12 -11 21 l0 39 -36 -6 c-20 -3 -38 -8 -41 -11 -2 -2
-7 -28 -10 -57 l-5 -54 88 -43 c101 -49 102 -49 129 42 19 62 19 88 1 130 -18
43 -36 54 -43 27z"/>
<path d="M4624 2723 c3 -16 8 -50 12 -77 4 -32 9 -44 15 -35 13 21 10 102 -5
122 -19 25 -28 21 -22 -10z"/>
<path d="M4584 2481 c-18 -11 -57 -50 -87 -88 -85 -108 -144 -155 -244 -196
-87 -37 -189 -107 -133 -91 46 12 184 85 270 142 97 64 220 181 220 209 0 10
5 24 12 31 18 18 -3 14 -38 -7z"/>
<path d="M1766 2353 c-13 -47 -37 -203 -34 -228 5 -45 28 -43 28 2 1 21 5 83
9 138 8 99 8 123 -3 88z"/>
<path d="M1714 1944 c-31 -73 -70 -504 -45 -504 15 0 40 153 46 288 3 73 10
158 16 188 13 68 6 79 -17 28z"/>
<path d="M4050 1927 c0 -23 -36 -412 -50 -538 -6 -53 -19 -131 -29 -173 -20
-84 -7 -102 16 -20 37 135 63 265 63 314 0 31 7 110 16 175 15 117 13 215 -7
246 -7 11 -9 11 -9 -4z"/>
<path d="M1690 1329 c0 -3 9 -32 20 -65 29 -82 72 -123 160 -149 18 -6 10 4
-26 33 -53 42 -114 109 -114 127 0 11 -39 64 -40 54z"/>
<path d="M2225 1045 c192 -51 346 -81 570 -109 329 -41 421 -48 625 -44 172 3
200 5 240 24 l45 21 -144 6 c-79 4 -241 4 -360 1 -276 -9 -329 -3 -856 95
-235 43 -265 45 -120 6z"/>
</g>
</svg>
